# xmcd CD database file
#
# Track frame offsets:
#	150
#	14042
#	30990
#	46524
#	64296
#	81054
#	94551
#	111352
#	127411
#	143693
#
# Disc length: 2218 seconds
#
# Revision: 0
# Processed by: cddbd v1.5.2PL0 Copyright (c) Steve Scherf et al.
# Submitted via: CDex 1.70beta2
#
DISCID=8108a80a
DTITLE=Madison Kozak - Steppin' Up
DYEAR=1900
DGENRE=Country
TTITLE0=Nashville Tennessee
TTITLE1=I'd Love You Once Again
TTITLE2=Jackson
TTITLE3=I Fall To Peices
TTITLE4=Heaven. Heartache and the Power of Love
TTITLE5=A Country Girl Like Me
TTITLE6=Coat of Many Colours
TTITLE7=Gone
TTITLE8=Wildwood FDlower
TTITLE9=Will the Circle Be Unbrtoken
EXTD=
EXTT0=
EXTT1=
EXTT2=
EXTT3=
EXTT4=
EXTT5=
EXTT6=
EXTT7=
EXTT8=
EXTT9=
PLAYORDER=
